<?xml version="1.0" encoding="utf-8"?>
<!-- Generator: Adobe Illustrator 23.0.3, SVG Export Plug-In . SVG Version: 6.00 Build 0)  -->
<svg version="1.1" id="Layer_1" xmlns="http://www.w3.org/2000/svg" xmlns:xlink="http://www.w3.org/1999/xlink" x="0px" y="0px"
	 viewBox="0 0 32 32" style="enable-background:new 0 0 32 32;" xml:space="preserve">
<style type="text/css">
	.st0{clip-path:url(#SVGID_2_);}
	.st1{clip-path:url(#SVGID_4_);}
</style>
<g>
	<g>
		<path d="M26,31H6c-0.5522461,0-1-0.4472656-1-1V2c0-0.5527344,0.4477539-1,1-1h20c0.5522461,0,1,0.4472656,1,1v28
			C27,30.5527344,26.5522461,31,26,31z M7,29h18V3H7V29z"/>
	</g>
	<g>
		<path d="M16,26c-3.3085938,0-6-2.6914063-6-6s2.6914063-6,6-6s6,2.6914063,6,6S19.3085938,26,16,26z M16,16
			c-2.2055664,0-4,1.7939453-4,4s1.7944336,4,4,4s4-1.7939453,4-4S18.2055664,16,16,16z"/>
	</g>
	<g>
		<circle cx="16" cy="9" r="2"/>
	</g>
</g>
</svg>
